<mxfile host="app.diagrams.net" agent="Mozilla/5.0 (Windows NT 10.0; Win64; x64) AppleWebKit/537.36 (KHTML, like Gecko) Chrome/135.0.0.0 Safari/537.36" version="26.1.1">
  <diagram name="PÃ¡gina-1" id="nUPLXNOfgVwYjQnA3lnb">
    <mxGraphModel dx="1358" dy="604" grid="1" gridSize="10" guides="1" tooltips="1" connect="1" arrows="1" fold="1" page="1" pageScale="1" pageWidth="827" pageHeight="1169" math="0" shadow="0">
      <root>
        <mxCell id="0" />
        <mxCell id="1" parent="0" />
        <mxCell id="m-dIwkz-9lO2UZKlcoLz-1" value="" style="rounded=0;whiteSpace=wrap;html=1;" vertex="1" parent="1">
          <mxGeometry x="315" y="70" width="200" height="100" as="geometry" />
        </mxCell>
        <mxCell id="m-dIwkz-9lO2UZKlcoLz-2" value="" style="rounded=0;whiteSpace=wrap;html=1;" vertex="1" parent="1">
          <mxGeometry x="81" y="210" width="200" height="80" as="geometry" />
        </mxCell>
        <mxCell id="m-dIwkz-9lO2UZKlcoLz-8" value="&lt;p class=&quot;MsoNormal&quot;&gt;&lt;font style=&quot;font-size: 14px;&quot;&gt;Reduce the amount of food wasted at EcoCompra and maximize&lt;br&gt;the responsible use of the surplus food&lt;/font&gt;&lt;/p&gt;" style="text;html=1;align=center;verticalAlign=middle;whiteSpace=wrap;rounded=0;" vertex="1" parent="1">
          <mxGeometry x="321" y="75" width="190" height="90" as="geometry" />
        </mxCell>
        <mxCell id="m-dIwkz-9lO2UZKlcoLz-9" value="&lt;span style=&quot;line-height: 115%;&quot;&gt;&lt;font style=&quot;font-size: 14px;&quot;&gt;Improve&lt;br&gt;the supermarket&#39;s internal stock management&amp;nbsp;&lt;/font&gt;&lt;/span&gt;" style="text;html=1;align=center;verticalAlign=middle;whiteSpace=wrap;rounded=0;" vertex="1" parent="1">
          <mxGeometry x="91" y="210" width="180" height="80" as="geometry" />
        </mxCell>
        <mxCell id="m-dIwkz-9lO2UZKlcoLz-12" value="&lt;p class=&quot;MsoNormal&quot;&gt;&lt;br&gt;&lt;/p&gt;" style="text;html=1;align=center;verticalAlign=middle;whiteSpace=wrap;rounded=0;" vertex="1" parent="1">
          <mxGeometry x="410" y="510" width="60" height="30" as="geometry" />
        </mxCell>
        <mxCell id="m-dIwkz-9lO2UZKlcoLz-13" value="&lt;p class=&quot;MsoNormal&quot;&gt;&lt;br&gt;&lt;/p&gt;" style="text;html=1;align=center;verticalAlign=middle;whiteSpace=wrap;rounded=0;" vertex="1" parent="1">
          <mxGeometry x="260" y="510" width="60" height="30" as="geometry" />
        </mxCell>
        <mxCell id="m-dIwkz-9lO2UZKlcoLz-14" value="&lt;p class=&quot;MsoNormal&quot;&gt;&lt;br&gt;&lt;/p&gt;" style="text;html=1;align=center;verticalAlign=middle;whiteSpace=wrap;rounded=0;" vertex="1" parent="1">
          <mxGeometry x="60" y="500" width="60" height="30" as="geometry" />
        </mxCell>
        <mxCell id="m-dIwkz-9lO2UZKlcoLz-16" value="" style="rounded=0;whiteSpace=wrap;html=1;" vertex="1" parent="1">
          <mxGeometry x="546" y="210" width="200" height="80" as="geometry" />
        </mxCell>
        <mxCell id="m-dIwkz-9lO2UZKlcoLz-17" value="" style="rounded=0;whiteSpace=wrap;html=1;" vertex="1" parent="1">
          <mxGeometry x="546" y="330" width="200" height="80" as="geometry" />
        </mxCell>
        <mxCell id="m-dIwkz-9lO2UZKlcoLz-18" value="" style="rounded=0;whiteSpace=wrap;html=1;" vertex="1" parent="1">
          <mxGeometry x="315" y="329" width="200" height="80" as="geometry" />
        </mxCell>
        <mxCell id="m-dIwkz-9lO2UZKlcoLz-15" value="" style="rounded=0;whiteSpace=wrap;html=1;" vertex="1" parent="1">
          <mxGeometry x="315" y="210" width="200" height="80" as="geometry" />
        </mxCell>
        <mxCell id="m-dIwkz-9lO2UZKlcoLz-19" value="" style="rounded=0;whiteSpace=wrap;html=1;" vertex="1" parent="1">
          <mxGeometry x="81" y="329" width="200" height="80" as="geometry" />
        </mxCell>
        <mxCell id="m-dIwkz-9lO2UZKlcoLz-22" value="&lt;font style=&quot;font-size: 14px;&quot;&gt;Optimize&lt;br style=&quot;&quot;&gt;the distribution of surplus food&amp;nbsp;&lt;/font&gt;" style="text;html=1;align=center;verticalAlign=middle;whiteSpace=wrap;rounded=0;" vertex="1" parent="1">
          <mxGeometry x="321" y="210" width="190" height="80" as="geometry" />
        </mxCell>
        <mxCell id="m-dIwkz-9lO2UZKlcoLz-23" value="&lt;font style=&quot;font-size: 14px;&quot;&gt;Prioritize institutions according to capacity and need&lt;/font&gt;" style="text;html=1;align=center;verticalAlign=middle;whiteSpace=wrap;rounded=0;" vertex="1" parent="1">
          <mxGeometry x="321" y="329" width="190" height="80" as="geometry" />
        </mxCell>
        <mxCell id="m-dIwkz-9lO2UZKlcoLz-24" value="&lt;font style=&quot;font-size: 14px;&quot;&gt;Provide early warning of products nearing expiry&lt;/font&gt;" style="text;html=1;align=center;verticalAlign=middle;whiteSpace=wrap;rounded=0;" vertex="1" parent="1">
          <mxGeometry x="86" y="329" width="190" height="80" as="geometry" />
        </mxCell>
        <mxCell id="m-dIwkz-9lO2UZKlcoLz-25" value="&lt;font style=&quot;font-size: 14px;&quot;&gt;Ensure&lt;br style=&quot;&quot;&gt;compliance and traceability of donated food&amp;nbsp;&lt;/font&gt;" style="text;html=1;align=center;verticalAlign=middle;whiteSpace=wrap;rounded=0;" vertex="1" parent="1">
          <mxGeometry x="551" y="210" width="190" height="80" as="geometry" />
        </mxCell>
        <mxCell id="m-dIwkz-9lO2UZKlcoLz-26" value="&lt;font style=&quot;font-size: 14px;&quot;&gt;Implement a structured digital record of donations&lt;/font&gt;" style="text;html=1;align=center;verticalAlign=middle;whiteSpace=wrap;rounded=0;" vertex="1" parent="1">
          <mxGeometry x="551" y="330" width="190" height="80" as="geometry" />
        </mxCell>
        <mxCell id="m-dIwkz-9lO2UZKlcoLz-27" value="" style="endArrow=classic;html=1;rounded=0;entryX=0.5;entryY=0;entryDx=0;entryDy=0;" edge="1" parent="1" target="m-dIwkz-9lO2UZKlcoLz-22">
          <mxGeometry width="50" height="50" relative="1" as="geometry">
            <mxPoint x="416" y="170" as="sourcePoint" />
            <mxPoint x="451" y="230" as="targetPoint" />
          </mxGeometry>
        </mxCell>
        <mxCell id="m-dIwkz-9lO2UZKlcoLz-28" value="" style="endArrow=classic;html=1;rounded=0;entryX=0.5;entryY=0;entryDx=0;entryDy=0;exitX=0.5;exitY=1;exitDx=0;exitDy=0;" edge="1" parent="1">
          <mxGeometry width="50" height="50" relative="1" as="geometry">
            <mxPoint x="413.5" y="290" as="sourcePoint" />
            <mxPoint x="413.5" y="330" as="targetPoint" />
          </mxGeometry>
        </mxCell>
        <mxCell id="m-dIwkz-9lO2UZKlcoLz-29" value="" style="endArrow=classic;html=1;rounded=0;entryX=0.5;entryY=0;entryDx=0;entryDy=0;exitX=0.5;exitY=1;exitDx=0;exitDy=0;" edge="1" parent="1">
          <mxGeometry width="50" height="50" relative="1" as="geometry">
            <mxPoint x="645.5" y="290" as="sourcePoint" />
            <mxPoint x="645.5" y="330" as="targetPoint" />
          </mxGeometry>
        </mxCell>
        <mxCell id="m-dIwkz-9lO2UZKlcoLz-30" value="" style="endArrow=classic;html=1;rounded=0;entryX=0.5;entryY=0;entryDx=0;entryDy=0;exitX=0.5;exitY=1;exitDx=0;exitDy=0;" edge="1" parent="1">
          <mxGeometry width="50" height="50" relative="1" as="geometry">
            <mxPoint x="180.5" y="290" as="sourcePoint" />
            <mxPoint x="180.5" y="330" as="targetPoint" />
          </mxGeometry>
        </mxCell>
        <mxCell id="m-dIwkz-9lO2UZKlcoLz-31" value="" style="endArrow=classic;html=1;rounded=0;entryX=0.5;entryY=0;entryDx=0;entryDy=0;" edge="1" parent="1">
          <mxGeometry width="50" height="50" relative="1" as="geometry">
            <mxPoint x="411" y="170" as="sourcePoint" />
            <mxPoint x="180.5" y="210" as="targetPoint" />
          </mxGeometry>
        </mxCell>
        <mxCell id="m-dIwkz-9lO2UZKlcoLz-32" value="" style="endArrow=classic;html=1;rounded=0;entryX=0.5;entryY=0;entryDx=0;entryDy=0;exitX=0.5;exitY=1;exitDx=0;exitDy=0;" edge="1" parent="1" source="m-dIwkz-9lO2UZKlcoLz-1">
          <mxGeometry width="50" height="50" relative="1" as="geometry">
            <mxPoint x="645.5" y="170" as="sourcePoint" />
            <mxPoint x="645.5" y="210" as="targetPoint" />
          </mxGeometry>
        </mxCell>
      </root>
    </mxGraphModel>
  </diagram>
</mxfile>
